PathFileType	4	(X/Y/Z)	C:/Users/opensim2020/Desktop/walking_exp_matlab/subject06_walking13_straight_03.trc																																																																																																																																																				
DataRate	CameraRate	NumFrames	NumMarkers	Units	OrigDataRate	OrigDataStartFrame	OrigNumFrames																																																																																																																																																
100	100	4	50	mm	100	2207	172																																																																																																																																																
Frame#	Time	LFHD			RFHD			LBHD			RBHD			C7			T10			CLAV			STRN			RBAK			LSHO			LUPA			LELB			LFRM			LWRA			LWRB			LFIN			RSHO			RUPA			RELB			RFRM			RWRA			RWRB			RFIN			LASI			RASI			LPSI			RPSI			LTHI			LKNE			LTIB			LANK			LHEE			LTOE			RTHI			RKNE			RTIB			RANK			RHEE			RTOE			*39			*40			*41			*42			*43			*44			*45			*46			*47			*48			*49		
		X1	Y1	Z1	X2	Y2	Z2	X3	Y3	Z3	X4	Y4	Z4	X5	Y5	Z5	X6	Y6	Z6	X7	Y7	Z7	X8	Y8	Z8	X9	Y9	Z9	X10	Y10	Z10	X11	Y11	Z11	X12	Y12	Z12	X13	Y13	Z13	X14	Y14	Z14	X15	Y15	Z15	X16	Y16	Z16	X17	Y17	Z17	X18	Y18	Z18	X19	Y19	Z19	X20	Y20	Z20	X21	Y21	Z21	X22	Y22	Z22	X23	Y23	Z23	X24	Y24	Z24	X25	Y25	Z25	X26	Y26	Z26	X27	Y27	Z27	X28	Y28	Z28	X29	Y29	Z29	X30	Y30	Z30	X31	Y31	Z31	X32	Y32	Z32	X33	Y33	Z33	X34	Y34	Z34	X35	Y35	Z35	X36	Y36	Z36	X37	Y37	Z37	X38	Y38	Z38	X39	Y39	Z39	X40	Y40	Z40	X41	Y41	Z41	X42	Y42	Z42	X43	Y43	Z43	X44	Y44	Z44	X45	Y45	Z45	X46	Y46	Z46	X47	Y47	Z47	X48	Y48	Z48	X49	Y49	Z49	X50	Y50	Z50
																																																																																																																																																							
22	0.21	-473.77844	1643.70789	-1060.1991	-487.26859	1628.09082	-929.72418	-608.06146	1596.07166	-1076.23743	-619.91565	1585.6178	-947.64056	-622.26282	1435.98364	-1026.30566	-667.05597	1106.98865	-1021.44757	-514.29028	1354.40942	-1015.50623	-479.85043	1178.54175	-1024.88928	-706.83832	1265.9259	-957.91132	-555.25275	1391.36157	-1181.70288	-533.04803	1190.18347	-1250.30737	-515.95721	1078.91968	-1260.62048	-402.60602	989.98389	-1285.36011	-273.48758	977.31494	-1253.34863	-307.63269	919.29437	-1276.13318	-217.92924	906.90509	-1285.4989	-574.56873	1385.80066	-858.33984	-655.74713	1199.26636	-779.13416	-670.79742	1077.25	-765.91364	-683.80255	957.43903	-746.99207	-656.39441	806.80762	-772.16785	-711.52258	822.6723	-736.21844	-695.35315	739.4845	-731.81427	-494.5159	941.36737	-1133.20728	-480.12796	956.90747	-912.23969	-650.57843	970.96893	-1096.39136	-634.81665	977.4552	-928.54492	-596.5766	630.41119	-1187.30444	-616.02393	465.67181	-1174.15833	-800.60516	284.70349	-1166.53748	-913.11194	152.72182	-1127.151	-949.80182	167.39603	-1080.60608	-828.58337	32.94351	-1120.5072	-463.24438	633.61829	-848.02106	-421.34076	517.72205	-879.80103	-414.29797	249.78767	-880.84967	-398.38602	66.00465	-929.39709	-434.27103	42.74773	-975.97778	-244.6651	37.46713	-928.83875	-577.44745	1684.80603	-1009.80029	NaN	NaN	NaN	NaN	NaN	NaN	NaN	NaN	NaN	NaN	NaN	NaN	NaN	NaN	NaN	NaN	NaN	NaN	NaN	NaN	NaN	NaN	NaN	NaN	NaN	NaN	NaN	NaN	NaN	NaN
23	0.22	-464.26596	1645.66724	-1058.72278	-477.77267	1629.79919	-928.26202	-598.39972	1598.19287	-1074.89124	-610.42578	1587.36389	-946.38086	-612.44269	1437.63184	-1025.07227	-656.48792	1108.90503	-1020.39502	-504.09048	1356.4801	-1014.51025	-468.86411	1180.92163	-1023.97485	-696.16687	1267.42371	-956.59753	-545.61682	1393.57483	-1180.53931	-523.88403	1192.39233	-1249.17615	-508.21487	1080.82947	-1258.9873	-396.77682	989.53162	-1284.06677	-267.56705	974.66302	-1252.3158	-302.65042	916.98938	-1274.81689	-213.44156	903.42194	-1284.9718	-564.1604	1387.79077	-857.34857	-643.16113	1200.37793	-777.64923	-657.03021	1078.27295	-764.7522	-668.53229	958.3587	-745.95703	-639.46722	808.06647	-771.55072	-694.64746	823.1203	-735.20874	-677.56812	740.12537	-731.16516	-483.03891	943.41089	-1131.32275	-469.75784	959.18878	-910.33386	-639.2251	972.73901	-1095.44531	-624.59821	979.55054	-927.46362	-582.02161	631.29846	-1186.65308	-598.49835	466.28665	-1174.69397	-786.40405	289.43649	-1167.17041	-901.06708	160.29193	-1127.56042	-936.00146	176.64812	-1080.1012	-825.85596	33.62179	-1120.00732	-454.62164	634.68677	-847.13409	-414.23257	518.30438	-878.94592	-410.97012	249.93039	-881.04266	-397.87384	66.12267	-929.69885	-434.1138	42.88493	-976.07928	-244.18004	36.7515	-929.46802	-567.84924	1686.69482	-1008.30157	NaN	NaN	NaN	NaN	NaN	NaN	NaN	NaN	NaN	NaN	NaN	NaN	NaN	NaN	NaN	NaN	NaN	NaN	NaN	NaN	NaN	NaN	NaN	NaN	NaN	NaN	NaN	NaN	NaN	NaN
24	0.23	-454.60443	1647.72168	-1057.26416	-468.20764	1631.48999	-926.93335	-588.78961	1600.33423	-1073.69006	-600.95087	1589.12048	-945.16852	-602.4931	1439.32178	-1023.89185	-645.9422	1110.57336	-1019.22003	-494.03345	1358.53906	-1013.62109	-457.69302	1183.52881	-1022.77356	-685.69348	1269.05737	-955.13239	-536.25122	1395.57605	-1179.39026	-514.95825	1194.54492	-1248.07141	-500.89487	1082.7229	-1257.29761	-390.74738	989.45502	-1282.8291	-262.10883	971.50146	-1251.30237	-298.89886	913.93671	-1274.13586	-209.56174	899.40387	-1284.41748	-553.79132	1389.76917	-856.40997	-630.58569	1201.55701	-776.13043	-643.24866	1079.33325	-763.56573	-653.07703	959.25641	-744.87457	-622.17407	809.4043	-771.06805	-676.88501	823.84924	-734.3103	-659.0174	740.98547	-730.59753	-472.12292	945.48889	-1129.42383	-459.49011	961.13306	-908.42474	-628.44928	974.44861	-1094.37866	-613.76703	981.40948	-926.61053	-567.57965	632.03931	-1185.896	-580.81427	466.98605	-1174.99268	-772.04443	294.25406	-1167.56592	-887.94647	167.41377	-1128.23206	-921.4292	185.73003	-1080.14319	-821.71167	35.53078	-1120.76782	-446.89539	635.50977	-846.35071	-408.28607	518.32208	-878.17499	-408.3692	250.0708	-880.95007	-397.37015	66.32226	-929.97809	-434.0072	43.04242	-976.25439	-243.77733	36.15704	-929.86279	-558.26886	1688.63037	-1006.8313	NaN	NaN	NaN	NaN	NaN	NaN	NaN	NaN	NaN	NaN	NaN	NaN	NaN	NaN	NaN	NaN	NaN	NaN	NaN	NaN	NaN	NaN	NaN	NaN	NaN	NaN	NaN	NaN	NaN	NaN
25	0.24	-445.11203	1649.73035	-1055.92126	-458.86691	1633.20984	-925.55225	-579.20648	1602.35901	-1072.50549	-591.46362	1590.86255	-944.15131	-592.58752	1441.00098	-1022.74683	-635.58472	1112.28711	-1018.0011	-483.95041	1360.57471	-1012.68457	-447.63358	1185.28516	-1021.99756	-675.19287	1270.63879	-953.63049	-526.935	1397.57751	-1178.35938	-506.19751	1196.44226	-1246.90564	-493.69543	1084.39392	-1256.08997	-385.60007	988.65912	-1281.77063	-256.95706	967.93884	-1250.38953	-294.67813	912.15094	-1273.20947	-206.00259	894.88776	-1283.81458	-543.33118	1391.71118	-855.45221	-617.8996	1202.67822	-774.64355	-629.45624	1080.328	-762.25397	-637.47198	960.13806	-743.81281	-604.40149	810.78931	-770.58734	-659.07593	824.01147	-733.71753	-639.88794	741.65253	-730.02643	-461.58185	947.43024	-1127.64722	-449.42148	962.79968	-906.7843	-618.12744	975.99292	-1093.25732	-603.77936	983.33258	-925.29163	-553.26788	632.75122	-1185.06641	-563.1344	467.75815	-1175.08484	-755.84711	299.2973	-1166.79907	-874.36218	174.37068	-1128.83057	-906.58893	194.81558	-1080.98804	-815.19818	39.07072	-1120.01904	-439.88126	636.14948	-845.84705	-402.79169	518.53302	-877.25305	-406.27563	250.16946	-880.93103	-397.07648	66.39016	-930.26898	-434.01077	43.22818	-976.45349	-243.48914	35.74578	-930.1626	-548.82764	1690.51697	-1005.46008	NaN	NaN	NaN	NaN	NaN	NaN	NaN	NaN	NaN	NaN	NaN	NaN	NaN	NaN	NaN	NaN	NaN	NaN	NaN	NaN	NaN	NaN	NaN	NaN	NaN	NaN	NaN	NaN	NaN	NaN
